<svg id="Layer_1" data-name="Layer 1" xmlns="http://www.w3.org/2000/svg" xmlns:xlink="http://www.w3.org/1999/xlink" viewBox="0 0 617.77 551.06"><defs><style>.cls-1{fill:url(#linear-gradient);}.cls-2{fill:url(#linear-gradient-2);}.cls-3{fill:url(#linear-gradient-3);}.cls-4{fill:url(#linear-gradient-4);}.cls-10,.cls-11,.cls-5,.cls-7,.cls-8,.cls-9{fill:none;}.cls-5{stroke:#6dc199;stroke-miterlimit:10;}.cls-10,.cls-11,.cls-5,.cls-7,.cls-8{stroke-linecap:round;}.cls-10,.cls-5,.cls-8{stroke-width:5px;}.cls-6{fill:#beaeff;opacity:0.23;isolation:isolate;}.cls-10,.cls-11,.cls-7,.cls-9{stroke:#8256d8;}.cls-10,.cls-11,.cls-7,.cls-8,.cls-9{stroke-linejoin:round;}.cls-7,.cls-9{stroke-width:8px;}.cls-8{stroke:#beaeff;}.cls-11{stroke-width:8.51px;}</style><linearGradient id="linear-gradient" x1="-1196.66" y1="-135.22" x2="-1196.66" y2="-136.22" gradientTransform="matrix(-459.03, 140.34, 140.34, 459.03, -529931.61, 230510.28)" gradientUnits="userSpaceOnUse"><stop offset="0" stop-color="#beaeff" stop-opacity="0"/><stop offset="1" stop-color="#fff"/></linearGradient><linearGradient id="linear-gradient-2" x1="-1191.58" y1="-139.57" x2="-1191.58" y2="-141.11" gradientTransform="matrix(478.62, 0, 0, -272.87, 570628.82, -37897.31)" gradientUnits="userSpaceOnUse"><stop offset="0" stop-color="#beaeff" stop-opacity="0.15"/><stop offset="1" stop-color="#8256d8" stop-opacity="0.46"/></linearGradient><linearGradient id="linear-gradient-3" x1="-1191.26" y1="-136.79" x2="-1191.26" y2="-138.32" gradientTransform="matrix(414.49, 239.31, 136.44, -236.31, 512797.38, 252954.27)" xlink:href="#linear-gradient-2"/><linearGradient id="linear-gradient-4" x1="-1192.64" y1="-141.71" x2="-1192.64" y2="-143.24" gradientTransform="matrix(414.49, -239.31, -136.44, -236.31, 475285.51, -318697.83)" xlink:href="#linear-gradient-2"/></defs><title>bridge_icons_landingpage_0</title><g id="Group_562" data-name="Group 562"><circle id="christina-wocintechchat-com-VpcgTEKerEQ-unsplash" class="cls-1" cx="318.31" cy="273.53" r="240"/><path id="Subtraction_7" data-name="Subtraction 7" class="cls-2" d="M82.17,240.58h0a243.35,243.35,0,0,0-1.1,58q1.23,12,3.63,23.76c1.58,7.71,3.56,15.42,5.9,22.93s5,14.82,8.05,22,6.39,14.14,10.07,20.92,7.7,13.37,12,19.73a240.65,240.65,0,0,0,64.64,64.64c6.36,4.3,13,8.33,19.73,12s13.82,7.07,20.92,10.07,14.56,5.74,22,8.05,15.23,4.32,22.94,5.9a237.76,237.76,0,0,0,23.76,3.63,243.92,243.92,0,0,0,48.93,0,238.4,238.4,0,0,0,23.77-3.63c7.71-1.58,15.42-3.56,22.93-5.9s14.82-5,22-8.05,14.13-6.39,20.92-10.07,13.37-7.69,19.73-12a240.61,240.61,0,0,0,64.63-64.64c4.3-6.36,8.33-13,12-19.73s7.08-13.82,10.08-20.92,5.74-14.56,8.05-22,4.31-15.22,5.9-22.93,2.81-15.78,3.62-23.76a242.31,242.31,0,0,0-1.1-58c-1,7.19-2.36,14.41-4,21.47s-3.63,14-5.89,20.75-4.83,13.44-7.67,19.94-6,12.86-9.35,19a240.54,240.54,0,0,1-86.29,90.11c-6,3.64-12.26,7.05-18.56,10.14s-12.91,6-19.51,8.5-13.51,4.83-20.36,6.77-14.05,3.63-21.14,4.95-14.51,2.37-21.8,3-14.92,1-22.38,1-15-.34-22.39-1-14.62-1.7-21.8-3-14.2-3-21.13-4.95-13.71-4.22-20.36-6.77S220.31,425.14,214,422s-12.55-6.5-18.56-10.14a240.37,240.37,0,0,1-86.3-90.11c-3.38-6.18-6.53-12.59-9.35-19s-5.42-13.21-7.66-19.94S87.84,269,86.2,262.05,83.18,247.77,82.17,240.58Z"/><path id="Subtraction_8" data-name="Subtraction 8" class="cls-3" d="M130,126.43h0a242.48,242.48,0,0,0-30,49.71,235.83,235.83,0,0,0-8.74,22.39c-2.49,7.46-4.63,15.14-6.36,22.81s-3.07,15.34-4,23.06-1.53,15.44-1.73,23.16,0,15.43.52,23.08a240.72,240.72,0,0,0,23.65,88.3c3.36,6.9,7.1,13.71,11.1,20.24s8.43,13,13.07,19.19,9.75,12.25,15,18,11,11.35,16.91,16.58a239.66,239.66,0,0,0,18.77,15,243,243,0,0,0,42.38,24.47q11,4.92,22.39,8.74c7.46,2.49,15.14,4.63,22.81,6.36s15.34,3.06,23.06,4,15.44,1.53,23.16,1.73,15.43,0,23.08-.51a240.93,240.93,0,0,0,88.3-23.66c6.9-3.36,13.71-7.1,20.24-11.1s13-8.43,19.19-13.07,12.25-9.75,18-15,11.36-11,16.58-16.91a239.66,239.66,0,0,0,15-18.77,243,243,0,0,0,28.06-50.8c-4.47,5.72-9.25,11.3-14.22,16.58s-10.11,10.27-15.48,15-10.89,9.23-16.6,13.44-11.6,8.15-17.62,11.81a240.45,240.45,0,0,1-119.79,34.89c-7,.15-14.14,0-21.14-.5s-14.17-1.28-21.14-2.39-14.12-2.57-21-4.32-14-3.87-20.77-6.27-13.75-5.21-20.4-8.27-13.44-6.57-19.9-10.3-12.82-7.8-18.87-12.09-11.82-8.78-17.36-13.53-10.81-9.69-15.83-14.85-9.76-10.51-14.25-16.05-8.7-11.25-12.64-17.11-7.62-11.91-11-18.07a240.34,240.34,0,0,1-29.69-121.18c.16-7.05.64-14.17,1.42-21.16s1.92-14.16,3.34-21.11,3.2-14,5.27-20.91S127.27,133.17,130,126.43Z"/><path id="Subtraction_9" data-name="Subtraction 9" class="cls-4" d="M96.82,363.4h0a242.81,242.81,0,0,0,28.06,50.81q7,9.75,15,18.76a236.22,236.22,0,0,0,16.58,16.91c5.71,5.28,11.76,10.33,18,15S187.05,474,193.63,478s13.35,7.74,20.24,11.09a240.75,240.75,0,0,0,88.3,23.67c7.66.54,15.42.71,23.08.51s15.51-.78,23.16-1.73,15.48-2.31,23.06-4,15.34-3.87,22.81-6.35,15.08-5.46,22.39-8.74a242.66,242.66,0,0,0,42.38-24.47q9.75-7,18.77-15a236.22,236.22,0,0,0,16.91-16.58c5.27-5.71,10.33-11.75,15-18s9-12.61,13.07-19.19,7.74-13.34,11.1-20.24a240.73,240.73,0,0,0,23.66-88.3c.54-7.66.71-15.42.51-23.08s-.78-15.51-1.73-23.16-2.31-15.48-4-23.06S548.46,206,546,198.53q-3.81-11.42-8.74-22.39a243,243,0,0,0-30-49.71c2.72,6.73,5.16,13.67,7.25,20.61s3.84,13.89,5.27,20.91,2.54,14.05,3.34,21.1,1.26,14.12,1.42,21.17A240.47,240.47,0,0,1,494.87,331.4c-3.39,6.16-7.09,12.23-11,18.06s-8.2,11.63-12.65,17.12-9.28,10.93-14.25,16-10.34,10.17-15.82,14.86-11.39,9.3-17.36,13.53-12.41,8.35-18.87,12.09-13.16,7.2-19.9,10.29-13.52,5.85-20.4,8.27-13.79,4.51-20.78,6.28-14,3.2-21,4.32-14.09,1.91-21.14,2.39-14.12.64-21.15.5a240.45,240.45,0,0,1-119.79-34.89c-6-3.66-12-7.63-17.62-11.81s-11.3-8.73-16.6-13.44S116,385.21,111,380,101.29,369.13,96.82,363.4Z"/></g><g id="Group_572" data-name="Group 572"><path id="Path_607" data-name="Path 607" class="cls-5" d="M431,372.7c32.19,0,32.19-15.44,64.39-15.44s32.19,15.44,64.39,15.44"/><path id="Path_608" data-name="Path 608" class="cls-5" d="M66.72,265.76c32.2,0,32.2-15.44,64.39-15.44s32.2,15.44,64.39,15.44"/><path id="Path_609" data-name="Path 609" class="cls-5" d="M364.88,339.64c32.19,0,32.19,15.43,64.39,15.43s32.19-15.43,64.38-15.43c21.42,0,28.59,6.83,40.47,11.4"/><path id="Path_610" data-name="Path 610" class="cls-5" d="M490.78,115.57c-32.19,0-32.19,15.44-64.38,15.44S394.2,115.57,362,115.57c-21.42,0-28.59,6.83-40.47,11.41"/><path id="Path_611" data-name="Path 611" class="cls-5" d="M362.32,98c32.19,0,32.19,15.43,64.38,15.43S458.9,98,491.09,98c21.42,0,28.59,6.83,40.47,11.4"/><path id="Path_612" data-name="Path 612" class="cls-5" d="M495.36,322c-32.2,0-32.2,15.44-64.39,15.44-21.65,0-28.74-7-40.85-11.56"/><path id="Path_613" data-name="Path 613" class="cls-5" d="M134.92,234.88c32.19,0,32.19,15.44,64.39,15.44,21.65,0,28.74-7,40.85-11.55"/><path id="Path_614" data-name="Path 614" class="cls-5" d="M70.86,235.65c32.19,0,32.19-15.44,64.39-15.44s32.2,15.44,64.39,15.44,32.2-15.44,64.39-15.44"/><g id="Group_569" data-name="Group 569"><path id="Rectangle_523" data-name="Rectangle 523" class="cls-6" d="M255.22,323.73h59a27.41,27.41,0,0,1,27.41,27.41h0v27.58a8.06,8.06,0,0,1-8.06,8.06H235.88a8.06,8.06,0,0,1-8.07-8.06h0V351.14a27.41,27.41,0,0,1,27.41-27.41Z"/><circle id="Ellipse_218" data-name="Ellipse 218" class="cls-6" cx="280.28" cy="270.17" r="34.9"/><circle id="Ellipse_218-2" data-name="Ellipse 218-2" class="cls-7" cx="275.19" cy="280.46" r="34.9"/><path id="Ellipse_218-3" data-name="Ellipse 218-3" class="cls-8" d="M291.26,286.1a16.08,16.08,0,0,1-32.15,0h0"/><path id="Rectangle_523-2" data-name="Rectangle 523-2" class="cls-7" d="M245.67,333.64h59a27.41,27.41,0,0,1,27.41,27.41h0v27.58a8.06,8.06,0,0,1-8.06,8.06H226.32a8.06,8.06,0,0,1-8.06-8.06h0V361.05A27.41,27.41,0,0,1,245.67,333.64Z"/></g><g id="Group_570" data-name="Group 570"><rect id="Rectangle_530" data-name="Rectangle 530" class="cls-6" x="167.44" y="98.44" width="133.8" height="86.43" rx="7.39"/><path id="Path_615" data-name="Path 615" class="cls-9" d="M288.18,133.48v54.38a8,8,0,0,1-8,8H162.38a8,8,0,0,1-8-8V117.44a8,8,0,0,1,8-8h98.24"/><path id="Path_616" data-name="Path 616" class="cls-10" d="M156.86,111.66l64.42,41,40.17-25.55"/><circle id="Ellipse_244" data-name="Ellipse 244" class="cls-8" cx="277.87" cy="117.48" r="19.03"/></g><g id="Group_571" data-name="Group 571"><rect id="Rectangle_531" data-name="Rectangle 531" class="cls-6" x="365.07" y="147.15" width="102.34" height="132.39" rx="8.51"/><rect id="Rectangle_532" data-name="Rectangle 532" class="cls-11" x="354.74" y="157.12" width="102.34" height="132.39" rx="8.51"/><circle id="Ellipse_245" data-name="Ellipse 245" class="cls-8" cx="382.16" cy="185.81" r="10.96"/><circle id="Ellipse_246" data-name="Ellipse 246" class="cls-8" cx="382.16" cy="224.31" r="10.96"/><circle id="Ellipse_247" data-name="Ellipse 247" class="cls-8" cx="382.16" cy="262.8" r="10.96"/><line id="Line_132" data-name="Line 132" class="cls-10" x1="405.91" y1="185.81" x2="437.93" y2="185.81"/><line id="Line_133" data-name="Line 133" class="cls-10" x1="405.91" y1="224.31" x2="437.93" y2="224.31"/><line id="Line_134" data-name="Line 134" class="cls-10" x1="405.91" y1="262.8" x2="437.93" y2="262.8"/></g></g></svg>