<svg id="Layer_1" data-name="Layer 1" xmlns="http://www.w3.org/2000/svg" xmlns:xlink="http://www.w3.org/1999/xlink" viewBox="0 0 617.77 551.06"><defs><style>.cls-1{fill:url(#linear-gradient);}.cls-2{fill:url(#linear-gradient-2);}.cls-3{fill:url(#linear-gradient-3);}.cls-4{fill:url(#linear-gradient-4);}.cls-5,.cls-7,.cls-8,.cls-9{fill:none;stroke-linecap:round;}.cls-5{stroke:#6dc199;stroke-miterlimit:10;}.cls-5,.cls-8,.cls-9{stroke-width:5px;}.cls-6{fill:#beaeff;opacity:0.23;isolation:isolate;}.cls-7,.cls-9{stroke:#8256d8;}.cls-7,.cls-8,.cls-9{stroke-linejoin:round;}.cls-7{stroke-width:8px;}.cls-8{stroke:#beaeff;}</style><linearGradient id="linear-gradient" x1="-1197" y1="473.87" x2="-1197" y2="472.87" gradientTransform="matrix(-459.03, 140.34, 140.34, 459.03, -615582.12, -49029.61)" gradientUnits="userSpaceOnUse"><stop offset="0" stop-color="#beaeff" stop-opacity="0"/><stop offset="1" stop-color="#fff"/></linearGradient><linearGradient id="linear-gradient-2" x1="-1191.61" y1="472.98" x2="-1191.61" y2="471.44" gradientTransform="matrix(478.62, 0, 0, -272.87, 570628.82, 129250.93)" gradientUnits="userSpaceOnUse"><stop offset="0" stop-color="#beaeff" stop-opacity="0.15"/><stop offset="1" stop-color="#8256d8" stop-opacity="0.46"/></linearGradient><linearGradient id="linear-gradient-3" x1="-1191.93" y1="475.44" x2="-1191.93" y2="473.9" gradientTransform="matrix(414.49, 239.31, 136.44, -236.31, 429528.4, 397790.67)" xlink:href="#linear-gradient-2"/><linearGradient id="linear-gradient-4" x1="-1192.03" y1="470.57" x2="-1192.03" y2="469.03" gradientTransform="matrix(414.49, -239.31, -136.44, -236.31, 558554.47, -173861.44)" xlink:href="#linear-gradient-2"/></defs><title>bridge_icons_landingpage_0</title><g id="Group_563" data-name="Group 563"><circle id="christina-wocintechchat-com-VpcgTEKerEQ-unsplash" class="cls-1" cx="304.05" cy="273.53" r="240"/><path id="Subtraction_4" data-name="Subtraction 4" class="cls-2" d="M67.92,240.58h0a242.31,242.31,0,0,0-1.1,58q1.22,12,3.62,23.76c1.58,7.71,3.57,15.42,5.9,22.93s5,14.82,8,22,6.39,14.14,10.08,20.92,7.69,13.37,12,19.73a240.47,240.47,0,0,0,64.63,64.64c6.36,4.3,13,8.33,19.73,12s13.82,7.07,20.92,10.07,14.56,5.74,22,8.05,15.22,4.32,22.93,5.9a238.65,238.65,0,0,0,23.76,3.63,244,244,0,0,0,48.94,0,238.65,238.65,0,0,0,23.76-3.63c7.71-1.58,15.42-3.56,22.93-5.9s14.82-5,22-8.05,14.14-6.39,20.92-10.07,13.37-7.69,19.73-12a240.65,240.65,0,0,0,64.64-64.64c4.3-6.36,8.33-13,12-19.73s7.08-13.82,10.08-20.92,5.74-14.56,8.05-22,4.32-15.22,5.9-22.93,2.81-15.78,3.62-23.76a242.31,242.31,0,0,0-1.1-58c-1,7.19-2.36,14.41-4,21.47s-3.62,14-5.89,20.75-4.82,13.44-7.67,19.94-6,12.86-9.34,19a240.43,240.43,0,0,1-86.3,90.11c-6,3.64-12.25,7.05-18.56,10.14s-12.91,6-19.51,8.5-13.5,4.83-20.36,6.77-14,3.63-21.13,4.95-14.51,2.37-21.8,3-14.92,1-22.39,1-15-.34-22.38-1-14.63-1.7-21.8-3-14.2-3-21.13-4.95-13.71-4.22-20.37-6.77-13.16-5.39-19.5-8.5-12.55-6.5-18.56-10.14a240.31,240.31,0,0,1-86.31-90.11c-3.38-6.18-6.53-12.59-9.34-19s-5.43-13.21-7.67-19.94S73.58,269,71.94,262.05,68.93,247.77,67.92,240.58Z"/><path id="Subtraction_5" data-name="Subtraction 5" class="cls-3" d="M115.74,126.43h0a242.08,242.08,0,0,0-30,49.71A238.55,238.55,0,0,0,77,198.53c-2.49,7.46-4.63,15.14-6.36,22.81s-3.06,15.34-4,23.06-1.53,15.44-1.74,23.16,0,15.43.52,23.08a240.54,240.54,0,0,0,23.66,88.3c3.35,6.9,7.09,13.71,11.09,20.24s8.43,13,13.08,19.19,9.74,12.25,15,18,11,11.35,16.91,16.58a239.51,239.51,0,0,0,18.76,15,243.39,243.39,0,0,0,42.38,24.47q11,4.92,22.39,8.74c7.47,2.49,15.14,4.63,22.81,6.36s15.35,3.06,23.07,4,15.44,1.53,23.15,1.73,15.43,0,23.08-.51a240.88,240.88,0,0,0,88.3-23.66c6.9-3.36,13.71-7.1,20.25-11.1s13-8.43,19.18-13.07,12.25-9.75,18-15,11.35-11,16.57-16.91a239.66,239.66,0,0,0,15-18.77,242.08,242.08,0,0,0,28.06-50.8c-4.47,5.72-9.25,11.3-14.21,16.58s-10.12,10.27-15.48,15-10.9,9.23-16.61,13.44-11.59,8.15-17.61,11.81a240.45,240.45,0,0,1-119.79,34.89c-7,.15-14.14,0-21.15-.5s-14.17-1.28-21.14-2.39-14.11-2.57-21-4.32-14-3.87-20.78-6.27-13.75-5.21-20.4-8.27-13.44-6.57-19.9-10.3-12.82-7.8-18.87-12.09-11.82-8.78-17.36-13.53-10.8-9.69-15.82-14.85-9.77-10.51-14.25-16.05-8.7-11.25-12.65-17.11-7.61-11.91-11-18.07A240.34,240.34,0,0,1,98.45,210.22c.16-7.05.64-14.17,1.43-21.16s1.91-14.16,3.33-21.11,3.21-14,5.27-20.91S113,133.17,115.74,126.43Z"/><path id="Subtraction_6" data-name="Subtraction 6" class="cls-4" d="M82.56,363.4h0a242.81,242.81,0,0,0,28.06,50.81q7,9.75,15,18.76a236.08,236.08,0,0,0,16.57,16.91c5.71,5.28,11.76,10.33,18,15S172.79,474,179.37,478s13.35,7.74,20.25,11.09a240.7,240.7,0,0,0,88.29,23.67c7.66.54,15.43.71,23.08.51s15.51-.78,23.16-1.73,15.48-2.31,23.06-4,15.35-3.87,22.82-6.35,15.07-5.46,22.39-8.74a243.39,243.39,0,0,0,42.38-24.47q9.75-7,18.76-15a236.22,236.22,0,0,0,16.91-16.58c5.28-5.71,10.33-11.75,15-18s9.05-12.61,13.08-19.19,7.73-13.34,11.09-20.24a240.54,240.54,0,0,0,23.66-88.3c.55-7.66.71-15.42.52-23.08s-.79-15.51-1.74-23.16-2.31-15.48-4-23.06-3.87-15.35-6.36-22.81A238.55,238.55,0,0,0,523,176.14a242.08,242.08,0,0,0-30-49.71c2.72,6.73,5.16,13.67,7.25,20.61s3.84,13.89,5.28,20.91,2.54,14.05,3.33,21.1,1.26,14.12,1.42,21.17A240.47,240.47,0,0,1,480.61,331.4c-3.38,6.16-7.08,12.23-11,18.06s-8.2,11.63-12.64,17.12-9.28,10.93-14.25,16-10.35,10.17-15.83,14.86-11.38,9.3-17.36,13.53-12.4,8.35-18.87,12.09-13.16,7.2-19.9,10.29-13.52,5.85-20.4,8.27-13.79,4.51-20.77,6.28-14,3.2-21,4.32-14.09,1.91-21.14,2.39-14.12.64-21.14.5a240.45,240.45,0,0,1-119.8-34.89c-6-3.66-11.95-7.63-17.61-11.81s-11.3-8.73-16.61-13.44-10.57-9.8-15.48-15S87,369.13,82.56,363.4Z"/></g><g id="Group_568" data-name="Group 568"><path id="Path_598" data-name="Path 598" class="cls-5" d="M264.71,238.1c-32.19,0-32.19,15.44-64.39,15.44s-32.19-15.44-64.38-15.44c-21.42,0-28.59,6.84-40.47,11.41"/><path id="Path_599" data-name="Path 599" class="cls-5" d="M328.77,238.87c-32.19,0-32.19-15.44-64.39-15.44s-32.2,15.44-64.39,15.44-32.2-15.44-64.39-15.44"/><path id="Path_600" data-name="Path 600" class="cls-5" d="M495,127.46c-8-3.86-16.1-7.72-32.19-7.72-32.2,0-32.2,15.44-64.39,15.44-14.95,0-23-3.33-30.47-6.9"/><path id="Path_601" data-name="Path 601" class="cls-5" d="M465.15,103.94c-32.19,0-32.19,15.44-64.39,15.44s-32.19-15.44-64.39-15.44c-21.42,0-28.58,6.83-40.46,11.41"/><path id="Path_602" data-name="Path 602" class="cls-5" d="M430.63,97.93c-7.43,3.52-15.43,6.77-30.2,6.77-32.19,0-32.19-15.44-64.39-15.44"/><path id="Path_603" data-name="Path 603" class="cls-5" d="M448.23,344.2c-32.19,0-32.19,15.44-64.38,15.44-21.65,0-28.74-7-40.86-11.55"/><path id="Path_604" data-name="Path 604" class="cls-5" d="M512.29,345c-32.19,0-32.19-15.44-64.38-15.44S415.71,345,383.52,345s-32.2-15.44-64.39-15.44"/><g id="Group_565" data-name="Group 565"><circle id="Ellipse_242" data-name="Ellipse 242" class="cls-6" cx="197.6" cy="133.76" r="66.82"/><circle id="Ellipse_243" data-name="Ellipse 243" class="cls-7" cx="190.17" cy="142.74" r="66.82"/><path id="Path_605" data-name="Path 605" class="cls-8" d="M190.17,111.9v30.84l28.34,33"/></g><g id="Group_566" data-name="Group 566"><rect id="Rectangle_525" data-name="Rectangle 525" class="cls-6" x="358.67" y="175.77" width="126" height="107.66" rx="8"/><line id="Line_131" data-name="Line 131" class="cls-8" x1="347.25" y1="215.74" x2="473.25" y2="215.74"/><rect id="Rectangle_526" data-name="Rectangle 526" class="cls-7" x="347.25" y="184.66" width="126" height="107.66" rx="8"/><path id="Path_582" data-name="Path 582" class="cls-9" d="M381.66,199.44h0a14.79,14.79,0,1,1,14.79-14.78h0"/><path id="Path_583" data-name="Path 583" class="cls-9" d="M410.25,199.44h0A14.79,14.79,0,1,1,425,184.66h0"/><path id="Path_584" data-name="Path 584" class="cls-9" d="M438.84,199.44h0a14.79,14.79,0,1,1,14.79-14.78h0"/><rect id="Rectangle_527" data-name="Rectangle 527" class="cls-8" x="432.25" y="252.57" width="19.73" height="19.73" rx="9.86"/></g><g id="Group_567" data-name="Group 567"><rect id="Rectangle_528" data-name="Rectangle 528" class="cls-6" x="178.05" y="270.86" width="107" height="107" rx="7.35"/><rect id="Rectangle_529" data-name="Rectangle 529" class="cls-7" x="165.93" y="284.17" width="107" height="107" rx="8"/><path id="Path_606" data-name="Path 606" class="cls-8" d="M195.56,345.44,214.08,369l38.22-59.79"/></g></g></svg>