<svg id="Layer_1" data-name="Layer 1" xmlns="http://www.w3.org/2000/svg" xmlns:xlink="http://www.w3.org/1999/xlink" viewBox="0 0 617.77 551.06"><defs><style>.cls-1{fill:url(#linear-gradient);}.cls-2{fill:url(#linear-gradient-2);}.cls-3{fill:url(#linear-gradient-3);}.cls-4{fill:url(#linear-gradient-4);}.cls-10,.cls-5,.cls-7,.cls-8,.cls-9{fill:none;stroke-linecap:round;}.cls-5{stroke:#6dc199;stroke-miterlimit:10;}.cls-10,.cls-5,.cls-8{stroke-width:5px;}.cls-6{fill:#beaeff;opacity:0.23;isolation:isolate;}.cls-10,.cls-7{stroke:#8256d8;}.cls-10,.cls-7,.cls-8,.cls-9{stroke-linejoin:round;}.cls-7,.cls-9{stroke-width:8px;}.cls-8,.cls-9{stroke:#beaeff;}</style><linearGradient id="linear-gradient" x1="-1197.38" y1="1075.49" x2="-1197.38" y2="1074.49" gradientTransform="matrix(-459.03, 140.34, 140.34, 459.03, -700181.99, -325140.49)" gradientUnits="userSpaceOnUse"><stop offset="0" stop-color="#beaeff" stop-opacity="0"/><stop offset="1" stop-color="#fff"/></linearGradient><linearGradient id="linear-gradient-2" x1="-1191.6" y1="1078.03" x2="-1191.6" y2="1076.49" gradientTransform="matrix(478.62, 0, 0, -272.87, 570628.82, 294348.84)" gradientUnits="userSpaceOnUse"><stop offset="0" stop-color="#beaeff" stop-opacity="0.15"/><stop offset="1" stop-color="#8256d8" stop-opacity="0.46"/></linearGradient><linearGradient id="linear-gradient-3" x1="-1192.56" y1="1080.19" x2="-1192.56" y2="1078.66" gradientTransform="matrix(414.49, 239.31, 136.44, -236.31, 347280.85, 540850.43)" xlink:href="#linear-gradient-2"/><linearGradient id="linear-gradient-4" x1="-1191.39" y1="1075.31" x2="-1191.39" y2="1073.78" gradientTransform="matrix(414.49, -239.31, -136.44, -236.31, 640802.01, -30801.7)" xlink:href="#linear-gradient-2"/></defs><title>bridge_icons_landingpage_0</title><circle id="christina-wocintechchat-com-VpcgTEKerEQ-unsplash" class="cls-1" cx="307.07" cy="270.43" r="240"/><path id="Subtraction_1" data-name="Subtraction 1" class="cls-2" d="M70.94,237.48h0a242.31,242.31,0,0,0-1.1,58,238.65,238.65,0,0,0,3.63,23.76,235,235,0,0,0,5.9,22.93c2.3,7.42,5,14.82,8,22s6.4,14.13,10.08,20.92,7.69,13.37,12,19.73a240.47,240.47,0,0,0,64.63,64.64c6.36,4.3,13,8.33,19.73,12s13.82,7.08,20.92,10.08,14.56,5.74,22,8,15.22,4.32,22.93,5.9q11.79,2.4,23.76,3.62a242.55,242.55,0,0,0,48.94,0c8-.81,15.91-2,23.76-3.62s15.43-3.56,22.93-5.9,14.83-5,22-8,14.14-6.39,20.92-10.08,13.37-7.69,19.73-12a240.65,240.65,0,0,0,64.64-64.64c4.3-6.36,8.33-13,12-19.73s7.07-13.82,10.07-20.92,5.74-14.56,8.05-22,4.32-15.22,5.9-22.93,2.82-15.79,3.63-23.76a242.83,242.83,0,0,0-1.11-58c-1,7.19-2.36,14.41-4,21.47S537.24,272.9,535,279.7s-4.82,13.44-7.66,19.94-6,12.85-9.35,19a240.43,240.43,0,0,1-86.3,90.11c-6,3.64-12.25,7-18.56,10.14s-12.91,6-19.5,8.5-13.51,4.83-20.37,6.77-14,3.63-21.13,4.95-14.51,2.36-21.8,3-14.92,1-22.39,1-15-.35-22.38-1-14.63-1.7-21.8-3-14.2-3-21.13-4.95-13.71-4.22-20.37-6.77-13.15-5.39-19.5-8.5-12.55-6.5-18.56-10.14a240.31,240.31,0,0,1-86.31-90.11c-3.38-6.18-6.53-12.59-9.34-19s-5.42-13.21-7.67-19.94S76.6,265.93,75,259,72,244.67,70.94,237.48Z"/><path id="Subtraction_2" data-name="Subtraction 2" class="cls-3" d="M118.76,123.33h0a242.27,242.27,0,0,0-30,49.7q-4.94,11-8.74,22.39c-2.49,7.47-4.63,15.14-6.36,22.82s-3.06,15.34-4,23.06-1.53,15.44-1.73,23.16,0,15.42.51,23.08a240.49,240.49,0,0,0,23.66,88.29c3.35,6.91,7.09,13.72,11.09,20.25s8.43,13,13.08,19.19,9.74,12.25,15,18,11,11.35,16.91,16.58,12.26,10.33,18.76,15a242.7,242.7,0,0,0,42.38,24.46q11,4.93,22.39,8.75c7.47,2.48,15.14,4.62,22.81,6.35s15.35,3.07,23.07,4,15.44,1.53,23.15,1.73,15.43,0,23.08-.52A240.49,240.49,0,0,0,412.15,486c6.91-3.35,13.72-7.09,20.25-11.09s13-8.43,19.19-13.08,12.25-9.74,18-15,11.35-11,16.57-16.92a239.51,239.51,0,0,0,15-18.76,242.39,242.39,0,0,0,28.07-50.81C524.73,366,520,371.6,515,376.88s-10.12,10.28-15.48,15-10.9,9.22-16.61,13.44-11.59,8.15-17.61,11.81A240.45,240.45,0,0,1,345.5,452.05c-7,.15-14.14,0-21.14-.5s-14.17-1.28-21.15-2.39-14.11-2.57-21-4.32-14-3.88-20.78-6.27-13.75-5.22-20.4-8.27-13.44-6.57-19.9-10.3-12.82-7.8-18.87-12.09-11.82-8.78-17.36-13.53-10.8-9.69-15.82-14.85-9.77-10.51-14.25-16-8.7-11.25-12.65-17.12-7.61-11.9-11-18.06a240.39,240.39,0,0,1-29.69-121.19c.16-7,.64-14.16,1.43-21.16s1.91-14.15,3.33-21.1,3.21-14,5.27-20.91S116,130.06,118.76,123.33Z"/><path id="Subtraction_3" data-name="Subtraction 3" class="cls-4" d="M85.58,360.3h0a242.64,242.64,0,0,0,28.07,50.81,239.51,239.51,0,0,0,15,18.76,236.08,236.08,0,0,0,16.57,16.91c5.72,5.28,11.76,10.33,18,15s12.6,9.05,19.18,13.08,13.35,7.73,20.25,11.09a240.49,240.49,0,0,0,88.29,23.66c7.66.55,15.43.72,23.09.52s15.5-.78,23.15-1.73,15.48-2.32,23.07-4,15.34-3.87,22.81-6.36a238,238,0,0,0,22.39-8.74,242.7,242.7,0,0,0,42.38-24.46,239.63,239.63,0,0,0,18.76-15,236.08,236.08,0,0,0,16.91-16.57c5.28-5.71,10.33-11.76,15-18s9.05-12.61,13.08-19.19,7.73-13.35,11.09-20.25a240.49,240.49,0,0,0,23.66-88.29c.55-7.66.72-15.43.52-23.09s-.79-15.5-1.73-23.15-2.32-15.48-4-23.06-3.87-15.35-6.36-22.82A238,238,0,0,0,526,173a242.27,242.27,0,0,0-30-49.7c2.72,6.73,5.16,13.66,7.25,20.6s3.84,13.9,5.28,20.92,2.54,14.05,3.33,21.1,1.26,14.12,1.42,21.16A240.66,240.66,0,0,1,483.64,328.3c-3.39,6.16-7.09,12.23-11,18.06S464.44,358,460,363.47s-9.28,10.94-14.25,16-10.35,10.16-15.83,14.86-11.38,9.3-17.36,13.53-12.4,8.35-18.87,12.08-13.16,7.2-19.9,10.3-13.52,5.84-20.4,8.27-13.79,4.51-20.77,6.28-14,3.2-21,4.31-14.09,1.92-21.14,2.4-14.12.64-21.14.49a240.33,240.33,0,0,1-119.8-34.88c-6-3.66-11.95-7.63-17.61-11.81s-11.3-8.73-16.61-13.44-10.57-9.8-15.48-15S90.05,366,85.58,360.3Z"/><g id="Group_561" data-name="Group 561"><path id="Path_589" data-name="Path 589" class="cls-5" d="M301.06,310.63c32.19,0,32.19,15.43,64.39,15.43s32.19-15.43,64.38-15.43,32.2,15.43,64.4,15.43"/><path id="Path_590" data-name="Path 590" class="cls-5" d="M429.84,324.06c32.19,0,32.19,15.44,64.38,15.44s32.2-15.44,64.39-15.44"/><path id="Path_591" data-name="Path 591" class="cls-5" d="M237,312.39c32.19,0,32.19-15.44,64.39-15.44s32.2,15.44,64.39,15.44"/><path id="Path_592" data-name="Path 592" class="cls-5" d="M137.56,123.62c32.19,0,32.19,15.44,64.38,15.44s32.19-15.44,64.38-15.44c21.42,0,28.59,6.83,40.47,11.41"/><path id="Path_593" data-name="Path 593" class="cls-5" d="M73.49,124.38c32.19,0,32.19-15.44,64.39-15.44s32.2,15.44,64.39,15.44,32.2-15.44,64.39-15.44"/><g id="Group_558" data-name="Group 558"><path id="Path_594" data-name="Path 594" class="cls-6" d="M385,334.74H260.22a8,8,0,0,0-8,8v40.81a8,8,0,0,0,8,8H270l19.52,20.6v-20.6H385a8,8,0,0,0,8-8V342.74A8,8,0,0,0,385,334.74Z"/><path id="Path_595" data-name="Path 595" class="cls-7" d="M374.71,345.43H250a8,8,0,0,0-8,8v40.81a8,8,0,0,0,8,8h9.78l19.52,20.6v-20.6h95.44a8,8,0,0,0,8-8V353.43A8,8,0,0,0,374.71,345.43Z"/><path id="Rectangle_522" data-name="Rectangle 522" class="cls-8" d="M272.65,363.35h0A9.65,9.65,0,0,1,282.3,373h0a9.65,9.65,0,0,1-9.65,9.65h0A9.64,9.64,0,0,1,263,373h0A9.64,9.64,0,0,1,272.65,363.35Z"/><path id="Rectangle_523" data-name="Rectangle 523" class="cls-8" d="M311,363.35h0a9.65,9.65,0,0,1,9.64,9.64h0a9.65,9.65,0,0,1-9.64,9.65h0a9.65,9.65,0,0,1-9.65-9.65h0A9.65,9.65,0,0,1,311,363.35Z"/><path id="Rectangle_524" data-name="Rectangle 524" class="cls-8" d="M349.42,363.35h0a9.65,9.65,0,0,1,9.65,9.64h0a9.65,9.65,0,0,1-9.65,9.65h0a9.65,9.65,0,0,1-9.64-9.65h0A9.65,9.65,0,0,1,349.42,363.35Z"/></g><g id="Group_559" data-name="Group 559"><circle id="Ellipse_218" data-name="Ellipse 218" class="cls-6" cx="269.22" cy="272.5" r="15.17"/><circle id="Ellipse_219" data-name="Ellipse 219" class="cls-6" cx="130.39" cy="188.05" r="22.53"/><circle id="Ellipse_220" data-name="Ellipse 220" class="cls-6" cx="271.62" cy="157.12" r="22.53"/><circle id="Ellipse_221" data-name="Ellipse 221" class="cls-6" cx="216.01" cy="226.1" r="22.53"/><circle id="Ellipse_222" data-name="Ellipse 222" class="cls-6" cx="157.72" cy="289.05" r="22.53"/><line id="Line_118" data-name="Line 118" class="cls-8" x1="252.11" y1="268.57" x2="228.67" y2="249.02"/><line id="Line_119" data-name="Line 119" class="cls-9" x1="168.01" y1="281.33" x2="198.15" y2="251.71"/><line id="Line_120" data-name="Line 120" class="cls-9" x1="145.3" y1="207.51" x2="189.42" y2="226.1"/><line id="Line_121" data-name="Line 121" class="cls-9" x1="253.24" y1="183.81" x2="228.67" y2="218.81"/><circle id="Ellipse_223" data-name="Ellipse 223" class="cls-7" cx="125.09" cy="197.54" r="22.53"/><circle id="Ellipse_224" data-name="Ellipse 224" class="cls-7" cx="152.92" cy="298.07" r="22.53"/><circle id="Ellipse_225" data-name="Ellipse 225" class="cls-7" cx="266.14" cy="165.33" r="22.53"/><circle id="Ellipse_226" data-name="Ellipse 226" class="cls-10" cx="264.39" cy="277.84" r="15.17"/><circle id="Ellipse_227" data-name="Ellipse 227" class="cls-7" cx="211.95" cy="233.91" r="22.53"/></g><g id="Group_560" data-name="Group 560"><circle id="Ellipse_228" data-name="Ellipse 228" class="cls-6" cx="417.86" cy="186.88" r="59.01"/><path id="Path_596" data-name="Path 596" class="cls-8" d="M395.11,253.88V221.36a8,8,0,0,1,8-8h12.25a8,8,0,0,1,8,8v32.52"/><circle id="Ellipse_229" data-name="Ellipse 229" class="cls-7" cx="409.23" cy="196.84" r="59.01"/><path id="Path_597" data-name="Path 597" class="cls-7" d="M384.3,250.33a8,8,0,0,0-1,3.82V290a8,8,0,0,0,8,8h35.8a8,8,0,0,0,8-8v-35.8a8,8,0,0,0-1-3.82A59,59,0,0,1,384.3,250.33Z"/><line id="Line_122" data-name="Line 122" class="cls-10" x1="383.33" y1="267.17" x2="435.13" y2="267.17"/><line id="Line_123" data-name="Line 123" class="cls-10" x1="383.33" y1="282.34" x2="435.13" y2="282.34"/><line id="Line_124" data-name="Line 124" class="cls-8" x1="409.23" y1="93.84" x2="409.23" y2="124"/><line id="Line_125" data-name="Line 125" class="cls-8" x1="305.09" y1="193.36" x2="335.25" y2="193.36"/><line id="Line_126" data-name="Line 126" class="cls-8" x1="483.21" y1="193.36" x2="513.37" y2="193.36"/><line id="Line_127" data-name="Line 127" class="cls-8" x1="336.6" y1="123.93" x2="357.92" y2="145.25"/><line id="Line_128" data-name="Line 128" class="cls-8" x1="460.54" y1="247.87" x2="481.86" y2="269.19"/><line id="Line_129" data-name="Line 129" class="cls-8" x1="333.33" y1="267.93" x2="354.65" y2="246.61"/><line id="Line_130" data-name="Line 130" class="cls-8" x1="459.28" y1="141.98" x2="480.6" y2="120.66"/></g></g></svg>