<svg id="Layer_1" data-name="Layer 1" xmlns="http://www.w3.org/2000/svg" viewBox="0 0 178.84 189.76"><defs><style>.cls-1{fill:#beaeff;opacity:0.23;}.cls-2,.cls-3{fill:none;stroke-linecap:round;stroke-linejoin:round;}.cls-2{stroke:#beaeff;stroke-width:5px;}.cls-3{stroke:#8256d8;stroke-width:8px;}</style></defs><title>bridge_icons_landingpage_0</title><path class="cls-1" d="M147.42,33.08H43.88a8,8,0,0,0-8,8v74.81a8,8,0,0,0,8,8H117v20.34l20.34-20.34h10.08a8,8,0,0,0,8-8V41.08A8,8,0,0,0,147.42,33.08Z"/><line class="cls-2" x1="43.16" y1="93.11" x2="123.23" y2="93.11"/><line class="cls-2" x1="43.16" y1="77.11" x2="123.23" y2="77.11"/><line class="cls-2" x1="43.16" y1="109.11" x2="123.23" y2="109.11"/><path class="cls-3" d="M135,45.53H31.43a8,8,0,0,0-8,8v74.81a8,8,0,0,0,8,8h73.11v20.34l20.34-20.34H135a8,8,0,0,0,8-8V53.53A8,8,0,0,0,135,45.53Z"/></svg>